<!-- Esta es una imagen base64 simplificada para el fondo de estrellas en escala de grises -->
<svg width="1000" height="1000" xmlns="http://www.w3.org/2000/svg">
  <rect width="100%" height="100%" fill="#000000"/>
  <!-- Estrellas grandes -->
  <g fill="#ffffff">
    <circle cx="50" cy="50" r="1" opacity="0.8"/>
    <circle cx="120" cy="80" r="1.5" opacity="0.7"/>
    <circle cx="200" cy="120" r="1" opacity="0.9"/>
    <circle cx="280" cy="40" r="1.2" opacity="0.6"/>
    <circle cx="350" cy="200" r="1" opacity="0.8"/>
    <circle cx="400" cy="150" r="1.3" opacity="0.7"/>
    <circle cx="480" cy="220" r="1" opacity="0.9"/>
    <circle cx="520" cy="70" r="1.2" opacity="0.8"/>
    <circle cx="600" cy="180" r="1" opacity="0.7"/>
    <circle cx="650" cy="250" r="1.4" opacity="0.9"/>
    <circle cx="720" cy="100" r="1" opacity="0.8"/>
    <circle cx="800" cy="220" r="1.3" opacity="0.7"/>
    <circle cx="880" cy="150" r="1" opacity="0.9"/>
    <circle cx="950" cy="50" r="1.2" opacity="0.8"/>
    
    <!-- Duplicaciones -->
    <circle cx="150" cy="250" r="1" opacity="0.8"/>
    <circle cx="220" cy="280" r="1.5" opacity="0.7"/>
    <circle cx="300" cy="320" r="1" opacity="0.9"/>
    <circle cx="380" cy="240" r="1.2" opacity="0.6"/>
    <circle cx="450" cy="400" r="1" opacity="0.8"/>
    <circle cx="500" cy="350" r="1.3" opacity="0.7"/>
    <circle cx="580" cy="420" r="1" opacity="0.9"/>
    <circle cx="620" cy="270" r="1.2" opacity="0.8"/>
    <circle cx="700" cy="380" r="1" opacity="0.7"/>
    <circle cx="750" cy="450" r="1.4" opacity="0.9"/>
    <circle cx="820" cy="300" r="1" opacity="0.8"/>
    <circle cx="900" cy="420" r="1.3" opacity="0.7"/>
    <circle cx="980" cy="350" r="1" opacity="0.9"/>

    <!-- Más duplicaciones -->
    <circle cx="50" cy="450" r="1" opacity="0.8"/>
    <circle cx="120" cy="480" r="1.5" opacity="0.7"/>
    <circle cx="200" cy="520" r="1" opacity="0.9"/>
    <circle cx="280" cy="440" r="1.2" opacity="0.6"/>
    <circle cx="350" cy="600" r="1" opacity="0.8"/>
    <circle cx="400" cy="550" r="1.3" opacity="0.7"/>
    <circle cx="480" cy="620" r="1" opacity="0.9"/>
    <circle cx="520" cy="470" r="1.2" opacity="0.8"/>
    <circle cx="600" cy="580" r="1" opacity="0.7"/>
    <circle cx="650" cy="650" r="1.4" opacity="0.9"/>
    <circle cx="720" cy="500" r="1" opacity="0.8"/>
    <circle cx="800" cy="620" r="1.3" opacity="0.7"/>
    <circle cx="880" cy="550" r="1" opacity="0.9"/>
    <circle cx="950" cy="450" r="1.2" opacity="0.8"/>

    <!-- Y más... -->
    <circle cx="150" cy="650" r="1" opacity="0.8"/>
    <circle cx="220" cy="680" r="1.5" opacity="0.7"/>
    <circle cx="300" cy="720" r="1" opacity="0.9"/>
    <circle cx="380" cy="640" r="1.2" opacity="0.6"/>
    <circle cx="450" cy="800" r="1" opacity="0.8"/>
    <circle cx="500" cy="750" r="1.3" opacity="0.7"/>
    <circle cx="580" cy="820" r="1" opacity="0.9"/>
    <circle cx="620" cy="670" r="1.2" opacity="0.8"/>
    <circle cx="700" cy="780" r="1" opacity="0.7"/>
    <circle cx="750" cy="850" r="1.4" opacity="0.9"/>
    <circle cx="820" cy="700" r="1" opacity="0.8"/>
    <circle cx="900" cy="820" r="1.3" opacity="0.7"/>
    <circle cx="980" cy="750" r="1" opacity="0.9"/>

    <!-- Y más estrellas... -->
    <circle cx="50" cy="850" r="1" opacity="0.8"/>
    <circle cx="120" cy="880" r="1.5" opacity="0.7"/>
    <circle cx="200" cy="920" r="1" opacity="0.9"/>
    <circle cx="280" cy="840" r="1.2" opacity="0.6"/>
    <circle cx="350" cy="900" r="1" opacity="0.8"/>
    <circle cx="400" cy="850" r="1.3" opacity="0.7"/>
    <circle cx="480" cy="920" r="1" opacity="0.9"/>
    <circle cx="520" cy="870" r="1.2" opacity="0.8"/>
    <circle cx="600" cy="880" r="1" opacity="0.7"/>
    <circle cx="650" cy="950" r="1.4" opacity="0.9"/>
    <circle cx="720" cy="900" r="1" opacity="0.8"/>
    <circle cx="800" cy="920" r="1.3" opacity="0.7"/>
    <circle cx="880" cy="950" r="1" opacity="0.9"/>
    <circle cx="950" cy="850" r="1.2" opacity="0.8"/>
  </g>
</svg>
